# xmcd
#
# Track frame offsets:
#	150
#	16721
#	35119
#	49229
#	64490
#	79048
#	93874
#	109231
#	126239
#	140056
#	154697
#	167090
#	186228
#	198569
#	216920
#	230215
#	244231
#
# Disc length: 3430 seconds
#
# Revision: 0
# Processed by: cddbd v1.5.2PL0 Copyright (c) Steve Scherf et al.
# Submitted via: audiograbber 1.83.01
#
DISCID=fd0d6411
DTITLE=Various Artist - COUNTRY MARCH 2016
DYEAR=2016
DGENRE=Country
TTITLE0=CHRIS YOUNG - THINK OF YOU
TTITLE1=TOBACCO RD BAND - JESUS AND GUNS
TTITLE2=CASH CREEK - WORTH A WOMAN
TTITLE3=BACKWOOD ANTHEM - TORN
TTITLE4=COLD CREEK COUNTRY - TILL THE WHEELS COME OFF
TTITLE5=JORDAN RAGER - FEELS LIKE ONE OF THEM
TTITLE6=THE CAINS - KNOCK KNOCK
TTITLE7=TRACE ADKINS - JESUS AND JONES
TTITLE8=BILLY CURRINGTON - IT DONT HURT LKE IT USED TO
TTITLE9=DIERKS BENTLEY - SOMEWHERE ON A BEACH
TTITLE10=BRENDA BURCH - SPARKS WILL FLY
TTITLE11=TIM MCGRAW - HUMBLE AND KIND
TTITLE12=BROOKE EDEN - DADDYS MONEY
TTITLE13=DAVID MCARTHUR - LOCAL MONEY
TTITLE14=OLIVIA LANE - MAKE MY OWN SUNSHINE
TTITLE15=STEVEN TYLER - RED WHITE AND YOU
TTITLE16=SCOTT BROTHERS - HOLD ON
EXTD=
EXTT0=
EXTT1=
EXTT2=
EXTT3=
EXTT4=
EXTT5=
EXTT6=
EXTT7=
EXTT8=
EXTT9=
EXTT10=
EXTT11=
EXTT12=
EXTT13=
EXTT14=
EXTT15=
EXTT16=
PLAYORDER=
